<svg xmlns="http://www.w3.org/2000/svg" width="854.2" height="366.65" viewBox="0 0 854.2 366.65">
  <defs>
    <style>
      .cls-1 {
        fill: #fff;
        fill-rule: evenodd;
      }
    </style>
  </defs>
  <path id="ASRL" class="cls-1" d="M11609.4,4000.46l-24.3-358.33h-67.7l-151.2,358.33h48.9l37.5-91.67h101.1l5.7,91.67h50Zm-58.1-133.85H11470l69.3-171.35h3.1Zm151.7,138.01c23.3,0,42.2-3.21,56.9-9.63s26.6-17.53,35.8-33.33c9.3-15.8,16.3-37.76,21.3-65.89q7.2-41.13,4.1-58.85-3.9-18.75-15.3-26.82c-7.5-5.38-18.1-9.29-31.5-11.72l-51.6-8.86c-9.1-1.38-15.5-3.38-19-5.98s-5.4-7.12-5.7-13.55,0.9-16.92,3.5-31.51q3-17.175,6.9-27.6a43.091,43.091,0,0,1,11.4-17.19c5-4.5,11.6-7.81,20-9.89q12.45-3.12,33.9-3.13a383.027,383.027,0,0,1,66.7,5.73l7.1-40.1c-8.6-2.43-20.2-4.43-34.7-5.99a406.839,406.839,0,0,0-43.6-2.34q-50.55,0-78.7,22.65c-18.8,15.11-31.6,41.41-38.2,78.91q-7.8,44.79-2.7,66.92c3.5,14.76,14.4,23.7,32.6,26.82l54.6,9.38c12.8,2.08,21.6,4.6,26.5,7.55s7.5,7.99,7.8,15.1-1.1,19.19-4.1,36.2c-2.2,12.5-4.7,22.58-7.4,30.21s-6.5,13.54-11.4,17.71a48.021,48.021,0,0,1-20.2,9.63q-12.3,2.865-32.1,2.87-30.75,0-74.5-5.73l-7.2,41.14c12.4,2.08,26.9,3.82,43.3,5.21s31.6,2.08,45.5,2.08h0Zm327.4-4.16-20.8-147.92q26.4-10.935,38.9-36.19c8.4-16.84,14.8-38.28,19.4-64.32q6.6-37.5,5-60.42c-1.2-15.27-7.2-27.34-18.1-36.2q-16.5-13.275-53.4-13.28h-113.1l-63.2,358.33h49l24.4-138.54h63.1l17.2,138.54h51.6Zm-72.9-180.73H11906l23.8-134.89h52c15,0,25.4,2.17,31.5,6.51,6,4.35,9.1,11.03,9.4,20.05,0.4,9.04-1.1,22.58-4.3,40.63q-4.65,26.55-10.2,40.36c-3.7,9.2-9.4,16.06-17.2,20.57-7.7,4.52-18.9,6.77-33.5,6.77h0Zm255.2,180.73,7.7-43.75h-107.8l55.5-314.58h-49.5l-63.2,358.33h157.3Z" transform="translate(-11366.2 -3637.97)"/>
</svg>
