<svg xmlns="http://www.w3.org/2000/svg" width="511" height="326" viewBox="0 0 511 326">
  <defs>
    <style>
      .cls-1 {
        fill: none;
        stroke: #fff;
        stroke-width: 10px;
      }

      .cls-2 {
        fill: #fff;
        fill-rule: evenodd;
      }
    </style>
  </defs>
  <circle id="Ellipse_1_copy" data-name="Ellipse 1 copy" class="cls-1" cx="303.985" cy="161.735" r="156.266"/>
  <path id="Shape_1_copy_2" data-name="Shape 1 copy 2" class="cls-2" d="M107.013,959.156s282.336-1.194,369.24,58.854c0-42.741-89.013-65.468-89.013-65.468l26.374-33.067S340.77,959.156,107.013,959.156ZM427.461,901.62L507.243,792.5s17.31-17.2,42.2-17.2c4.431,0,9.455-.23,14.723-0.608a250.971,250.971,0,0,0-11.425,22.433c8.449,0,17.534-17.855,21.292-23.277,21.772-2.123,43.984-5.823,43.984-5.823H511.2S451.976,866.306,427.461,901.62ZM363.5,991.561l-54.727,79.359s-7.187,9.92,7.913,9.92c2.9,0,12.611,1.89,25.619,3.41,1.526-2.79,8.919-11.7,13.283-10.68-1.961,3.16-5.055,8.37-6.473,11.4,7.11,0.68,14.915,1.16,22.957,1.16-23.036,0-70.551,6.62-70.551,6.62s-29.765,4.37-5.275-24.47S353.262,1006.43,363.5,991.561Z" transform="translate(-107 -767)"/>
</svg>
